<?xml version="1.0" standalone="no"?>
<!DOCTYPE svg PUBLIC "-//W3C//DTD SVG 20010904//EN"
 "http://www.w3.org/TR/2001/REC-SVG-20010904/DTD/svg10.dtd">
<svg version="1.0" xmlns="http://www.w3.org/2000/svg"
 width="250.000000pt" height="250.000000pt" viewBox="0 0 250.000000 250.000000"
 preserveAspectRatio="xMidYMid meet">
<metadata>
Created by potrace 1.11, written by Peter Selinger 2001-2013
</metadata>
<g transform="translate(0.000000,250.000000) scale(0.100000,-0.100000)"
fill="#000000" stroke="none">
<path d="M1044 2485 c-272 -50 -507 -174 -693 -365 -169 -174 -295 -421 -335
-660 -19 -108 -19 -311 0 -415 79 -450 378 -812 799 -968 93 -34 138 -46 260
-67 85 -15 349 -4 450 19 426 96 771 407 909 821 19 58 37 119 40 135 3 17 10
53 15 80 10 54 8 337 -4 395 -105 540 -490 925 -1025 1025 -70 13 -344 13
-416 0z m381 -130 c156 -32 252 -65 355 -122 308 -168 514 -458 574 -808 13
-74 15 -291 3 -340 -2 -11 -8 -40 -12 -65 -10 -61 -60 -201 -100 -280 -135
-265 -395 -479 -687 -564 -109 -31 -145 -37 -288 -41 -130 -4 -197 5 -323 40
-601 170 -947 802 -766 1400 123 408 489 722 914 784 63 9 279 7 330 -4z"/>
<path d="M751 1769 c-152 -28 -192 -221 -64 -309 28 -19 49 -25 93 -25 34 0
64 6 74 14 14 12 20 11 39 -6 12 -10 60 -52 107 -93 47 -41 91 -79 99 -86 16
-14 17 -13 -110 -126 -114 -101 -107 -96 -151 -81 -22 7 -52 11 -66 9 -15 -2
-35 -5 -44 -5 -30 -2 -97 -70 -108 -109 -16 -60 -12 -95 19 -143 37 -60 85
-83 158 -77 91 8 144 63 151 155 l4 58 120 89 120 90 326 -166 c180 -90 335
-163 344 -161 19 5 34 45 23 63 -3 6 -43 38 -88 71 -45 33 -92 68 -104 77 -12
9 -90 67 -172 127 -83 61 -150 112 -150 115 0 3 110 86 246 185 275 201 273
200 273 223 0 36 -40 61 -65 42 -27 -20 -627 -321 -635 -318 -5 2 -61 41 -124
88 l-116 85 0 48 c0 58 -19 98 -62 130 -47 34 -86 45 -137 36z m64 -135 c22
-22 15 -56 -14 -71 -46 -22 -84 21 -56 63 18 28 47 31 70 8z m12 -720 c3 -9 1
-26 -5 -40 -22 -48 -98 -14 -85 37 11 40 75 42 90 3z"/>
</g>
</svg>
